<svg width="0" height="0" class="hidden">
  <symbol xmlns="http://www.w3.org/2000/svg" viewBox="0 0 17 17" id="loupe">
    <path d="M16.958 15.527L11.75 10.32A6.455 6.455 0 0 0 13 6.5 6.5 6.5 0 1 0 6.5 13a6.465 6.465 0 0 0 3.839-1.263l5.205 5.204 1.414-1.414zM6.5 11C4.019 11 2 8.981 2 6.5S4.019 2 6.5 2 11 4.019 11 6.5 8.981 11 6.5 11z"></path>
  </symbol>
  <symbol xmlns="http://www.w3.org/2000/svg" viewBox="0 0 21 19" id="entrance">
    <path d="M6 14.875L12.917 9.5 6 4.125v2.917H-.042v4.917H6z"></path>
    <path d="M18 0H5C3.9 0 3 .9 3 2v2h2V2h13v15H5v-2H3v2c0 1.1.9 2 2 2h13c1.1 0 2-.9 2-2V2c0-1.1-.9-2-2-2z"></path>
  </symbol>
</svg>