<svg width="0" height="0" class="hidden">
  <symbol xmlns="http://www.w3.org/2000/svg" viewBox="0 0 32 32" id="fb">
    <path d="M16 0C7.164 0 0 7.163 0 16s7.164 16 16 16c8.837 0 16-7.164 16-16S24.837 0 16 0zm4.062 9.455h-3.021v3.444h3.021v3.445h-3.021v8.61H14.02v-8.61H11v-3.445h3.021V9.455c0-1.902 1.353-3.445 3.021-3.445h3.021v3.445z"></path>
  </symbol>
  <symbol xmlns="http://www.w3.org/2000/svg" viewBox="0 0 32 32" id="instagram">
    <g>
      <path d="M20.916 16a4.938 4.938 0 1 1-9.877 0c0-.394.051-.773.138-1.14h-.897v6.838h11.396V14.86h-.897c.086.367.137.746.137 1.14z"></path>
      <path d="M15.978 18.659c1.466 0 2.659-1.193 2.659-2.659s-1.193-2.659-2.659-2.659c-1.466 0-2.659 1.193-2.659 2.659s1.192 2.659 2.659 2.659zm2.659-8.357h3.039v3.039h-3.039z"></path>
      <path d="M16 0C7.164 0 0 7.164 0 16c0 8.837 7.164 16 16 16 8.837 0 16-7.163 16-16 0-8.836-7.163-16-16-16zm7.955 21.698a2.285 2.285 0 0 1-2.279 2.279H10.279A2.285 2.285 0 0 1 8 21.698V10.302a2.286 2.286 0 0 1 2.279-2.279h11.396a2.286 2.286 0 0 1 2.279 2.279v11.396z"></path>
    </g>
  </symbol>
  <symbol xmlns="http://www.w3.org/2000/svg" viewBox="0 0 32 32" id="twitter">
    <path d="M16 0C7.164 0 0 7.164 0 16c0 8.837 7.164 16 16 16 8.837 0 16-7.163 16-16 0-8.836-7.163-16-16-16zm7.944 12.809c-.251 6.516-3.463 10.832-10.992 10.702h-.486c-.447 0-4.543-.443-5.344-1.823 2.479.19 4.247-.406 5.12-1.136-1.048-.289-2.923-.461-3.251-2.848.384.104.618.221 1.299.113-1.307-.824-2.758-1.519-2.679-3.643.311.317 1.164.518 1.46.457-.768-.233-2.149-3.244-.974-4.781 1.984 1.79 4.075 3.482 7.804 3.643.227-2.214 1.24-3.699 3.168-4.325 1.84-.479 3.255.26 3.901 1.138.737-.224 1.453-.466 2.193-.685-.004.833-.569 1.463-.935 1.709.747.165 1.423-.475 1.423-.475-.184.963-1.094 1.725-1.707 1.954z"></path>
  </symbol>
  <symbol xmlns="http://www.w3.org/2000/svg" viewBox="0 0 32 32" id="vk">
    <g>
      <path d="M16.637 14.495c.402-.019.719-.082.951-.188.326-.145.54-.33.641-.559.101-.229.15-.496.15-.797 0-.232-.058-.465-.174-.697-.116-.232-.322-.405-.617-.517-.264-.1-.592-.155-.984-.165a76.242 76.242 0 0 0-1.652-.014h-.339v2.965h.565c.571 0 1.057-.009 1.459-.028zm1.481 2.589c-.282-.081-.672-.125-1.166-.132a127.97 127.97 0 0 0-1.55-.009h-.79v3.493h.264c1.014 0 1.74-.003 2.18-.009a3.2 3.2 0 0 0 1.212-.245c.377-.157.633-.364.774-.625s.214-.562.214-.9c0-.446-.088-.788-.261-1.03-.17-.241-.464-.423-.877-.543z"></path>
      <path d="M16 0C7.164 0 0 7.164 0 16c0 8.837 7.164 16 16 16 8.837 0 16-7.163 16-16 0-8.836-7.163-16-16-16zm6.602 20.531a3.73 3.73 0 0 1-1.124 1.327c-.552.415-1.161.71-1.823.886s-1.501.264-2.519.264h-6.121V8.987h5.443c1.13 0 1.957.038 2.48.113a5.126 5.126 0 0 1 1.561.5c.533.27.929.632 1.189 1.087.26.455.392.975.392 1.558 0 .678-.179 1.278-.536 1.795-.358.518-.863.92-1.517 1.208v.075c.917.182 1.642.559 2.179 1.13.537.571.807 1.325.807 2.261 0 .678-.138 1.283-.411 1.817z"></path>
    </g>
  </symbol>
</svg>